<?xml version="1.0" encoding="utf-8"?>
<!-- Generator: Adobe Illustrator 24.1.2, SVG Export Plug-In . SVG Version: 6.00 Build 0)  -->
<svg version="1.1" id="圖層_1" xmlns="http://www.w3.org/2000/svg" xmlns:xlink="http://www.w3.org/1999/xlink" x="0px" y="0px"
	 viewBox="0 0 276 276" style="enable-background:new 0 0 276 276;" xml:space="preserve">
<style type="text/css">
	.st0{fill:#FFFFFF;}
</style>
<g>
	<path class="st0" d="M138,7.5c34.86,0,67.63,13.57,92.28,38.22c24.65,24.65,38.22,57.42,38.22,92.28s-13.57,67.63-38.22,92.28
		c-24.65,24.65-57.42,38.22-92.28,38.22s-67.63-13.57-92.28-38.22C21.07,205.63,7.5,172.86,7.5,138s13.57-67.63,38.22-92.28
		C70.37,21.07,103.14,7.5,138,7.5 M138,2.5C63.17,2.5,2.5,63.17,2.5,138S63.17,273.5,138,273.5S273.5,212.83,273.5,138
		S212.83,2.5,138,2.5L138,2.5z"/>
	<g>
		<path class="st0" d="M162.93,85.45h14.91V59.47c-2.57-0.35-11.42-1.15-21.73-1.15c-21.5,0-36.23,13.53-36.23,38.38v22.88H96.16
			v29.04h23.73v73.06h29.09v-73.05h22.77l3.61-29.04h-26.39v-20C148.98,91.19,151.24,85.45,162.93,85.45L162.93,85.45z
			 M162.93,85.45"/>
	</g>
</g>
</svg>
