<?xml version="1.0" encoding="utf-8"?>
<!-- Generator: Adobe Illustrator 24.1.2, SVG Export Plug-In . SVG Version: 6.00 Build 0)  -->
<svg version="1.1" id="圖層_1" xmlns="http://www.w3.org/2000/svg" xmlns:xlink="http://www.w3.org/1999/xlink" x="0px" y="0px"
	 viewBox="0 0 276 276" style="enable-background:new 0 0 276 276;" xml:space="preserve">
<style type="text/css">
	.st0{fill:#FFFFFF;}
	.st1{clip-path:url(#SVGID_2_);fill:#FFFFFF;}
</style>
<g>
	<path class="st0" d="M138,7.5c34.86,0,67.63,13.57,92.28,38.22c24.65,24.65,38.22,57.42,38.22,92.28s-13.57,67.63-38.22,92.28
		c-24.65,24.65-57.42,38.22-92.28,38.22s-67.63-13.57-92.28-38.22C21.07,205.63,7.5,172.86,7.5,138s13.57-67.63,38.22-92.28
		C70.37,21.07,103.14,7.5,138,7.5 M138,2.5C63.17,2.5,2.5,63.17,2.5,138S63.17,273.5,138,273.5S273.5,212.83,273.5,138
		S212.83,2.5,138,2.5L138,2.5z"/>
	<g>
		<g>
			<defs>
				<rect id="SVGID_1_" x="65.74" y="65.74" width="144.53" height="144.53"/>
			</defs>
			<clipPath id="SVGID_2_">
				<use xlink:href="#SVGID_1_"  style="overflow:visible;"/>
			</clipPath>
			<path class="st1" d="M210.12,108.23c-0.34-7.68-1.58-12.96-3.36-17.53c-1.84-4.86-4.66-9.2-8.36-12.82
				c-3.61-3.67-7.99-6.52-12.79-8.33c-4.6-1.78-9.85-3.02-17.53-3.36c-7.74-0.37-10.19-0.45-29.81-0.45
				c-19.62,0-22.08,0.09-29.79,0.42c-7.68,0.34-12.96,1.58-17.53,3.36c-4.86,1.83-9.2,4.66-12.82,8.36
				c-3.67,3.61-6.52,7.99-8.33,12.79c-1.78,4.6-3.02,9.85-3.36,17.53c-0.37,7.74-0.45,10.19-0.45,29.82
				c0,19.62,0.09,22.08,0.42,29.79c0.34,7.68,1.58,12.96,3.36,17.53c1.84,4.86,4.69,9.2,8.36,12.82c3.62,3.67,7.99,6.52,12.79,8.33
				c4.6,1.78,9.85,3.02,17.53,3.36c7.71,0.34,10.16,0.42,29.79,0.42c19.62,0,22.08-0.08,29.79-0.42c7.68-0.34,12.96-1.58,17.53-3.36
				c9.71-3.76,17.39-11.43,21.15-21.15c1.78-4.6,3.02-9.85,3.36-17.53c0.34-7.71,0.42-10.16,0.42-29.79
				C210.49,118.39,210.46,115.94,210.12,108.23L210.12,108.23z M197.11,167.24c-0.31,7.06-1.5,10.87-2.48,13.41
				c-2.43,6.3-7.43,11.29-13.72,13.72c-2.54,0.99-6.38,2.17-13.41,2.48c-7.62,0.34-9.91,0.42-29.19,0.42
				c-19.28,0-21.6-0.08-29.19-0.42c-7.06-0.31-10.87-1.5-13.41-2.48c-3.13-1.16-5.98-2.99-8.3-5.39c-2.4-2.34-4.24-5.17-5.39-8.3
				c-0.99-2.54-2.17-6.38-2.48-13.41c-0.34-7.62-0.42-9.91-0.42-29.19c0-19.28,0.08-21.6,0.42-29.19c0.31-7.06,1.5-10.87,2.48-13.41
				c1.16-3.13,2.99-5.99,5.42-8.3c2.34-2.4,5.17-4.23,8.3-5.39c2.54-0.99,6.38-2.17,13.41-2.48c7.62-0.34,9.91-0.42,29.19-0.42
				c19.31,0,21.6,0.09,29.19,0.42c7.06,0.31,10.87,1.5,13.41,2.48c3.13,1.16,5.98,2.99,8.3,5.39c2.4,2.34,4.24,5.17,5.39,8.3
				c0.99,2.54,2.17,6.38,2.48,13.41c0.34,7.62,0.42,9.91,0.42,29.19C197.53,157.35,197.45,159.61,197.11,167.24L197.11,167.24z
				 M197.11,167.24"/>
		</g>
		<path class="st0" d="M138.27,100.89c-20.5,0-37.13,16.63-37.13,37.13c0,20.5,16.63,37.13,37.13,37.13
			c20.5,0,37.13-16.63,37.13-37.13C175.39,117.52,158.77,100.89,138.27,100.89L138.27,100.89z M138.27,162.1
			c-13.3,0-24.08-10.78-24.08-24.08c0-13.3,10.79-24.08,24.08-24.08c13.3,0,24.08,10.79,24.08,24.08
			C162.35,151.31,151.57,162.1,138.27,162.1L138.27,162.1z M138.27,162.1"/>
		<path class="st0" d="M185.53,99.42c0,4.79-3.88,8.67-8.67,8.67c-4.79,0-8.67-3.88-8.67-8.67c0-4.79,3.88-8.67,8.67-8.67
			C181.65,90.75,185.53,94.63,185.53,99.42L185.53,99.42z M185.53,99.42"/>
	</g>
</g>
</svg>
