<?xml version="1.0" encoding="utf-8"?>
<!-- Generator: Adobe Illustrator 24.1.2, SVG Export Plug-In . SVG Version: 6.00 Build 0)  -->
<svg version="1.1" id="圖層_1" xmlns="http://www.w3.org/2000/svg" xmlns:xlink="http://www.w3.org/1999/xlink" x="0px" y="0px"
	 viewBox="0 0 276 276" style="enable-background:new 0 0 276 276;" xml:space="preserve">
<style type="text/css">
	.st0{fill:#FFFFFF;}
</style>
<g>
	<path class="st0" d="M138,7.5c34.86,0,67.63,13.57,92.28,38.22c24.65,24.65,38.22,57.42,38.22,92.28s-13.57,67.63-38.22,92.28
		c-24.65,24.65-57.42,38.22-92.28,38.22s-67.63-13.57-92.28-38.22C21.07,205.63,7.5,172.86,7.5,138s13.57-67.63,38.22-92.28
		C70.37,21.07,103.14,7.5,138,7.5 M138,2.5C63.17,2.5,2.5,63.17,2.5,138S63.17,273.5,138,273.5S273.5,212.83,273.5,138
		S212.83,2.5,138,2.5L138,2.5z"/>
	<g>
		<path class="st0" d="M206.47,107.65c-1.65-6.12-6.47-10.94-12.59-12.59C182.71,92,138,92,138,92s-44.71,0-55.88,2.94
			c-6,1.65-10.94,6.59-12.59,12.71C66.59,118.82,66.59,142,66.59,142s0,23.29,2.94,34.35c1.65,6.12,6.47,10.94,12.59,12.59
			C93.41,192,138,192,138,192s44.71,0,55.88-2.94c6.12-1.65,10.94-6.47,12.59-12.59c2.94-11.18,2.94-34.35,2.94-34.35
			S209.53,118.82,206.47,107.65L206.47,107.65z M123.76,163.41v-42.82L160.94,142L123.76,163.41z M123.76,163.41"/>
	</g>
</g>
</svg>
